<?xml version="1.0" standalone="no"?>
<!DOCTYPE svg PUBLIC "-//W3C//DTD SVG 20010904//EN"
 "http://www.w3.org/TR/2001/REC-SVG-20010904/DTD/svg10.dtd">
<svg version="1.0" xmlns="http://www.w3.org/2000/svg"
 width="256.000000pt" height="256.000000pt" viewBox="0 0 256.000000 256.000000"
 preserveAspectRatio="xMidYMid meet">

<g transform="translate(0.000000,256.000000) scale(0.100000,-0.100000)"
fill="#000000" stroke="none">
<path d="M735 2426 c-132 -42 -240 -145 -281 -268 l-16 -48 -194 0 c-194 0
-195 0 -219 -25 -34 -33 -34 -93 -1 -132 l24 -28 197 -3 c173 -3 197 -6 202
-20 48 -143 150 -247 281 -288 65 -20 189 -19 255 2 113 35 218 132 262 240
l24 59 621 5 622 5 24 28 c30 35 32 94 5 128 l-19 24 -628 5 -627 5 -12 41
c-26 88 -116 194 -204 239 -88 44 -229 59 -316 31z m187 -188 c53 -16 122 -78
143 -130 79 -197 -123 -387 -312 -293 -116 58 -161 192 -104 303 54 105 164
153 273 120z"/>
<path d="M1621 1709 c-72 -14 -163 -63 -215 -115 -41 -42 -87 -119 -110 -186
-5 -17 -43 -18 -616 -18 -446 0 -617 -3 -633 -12 -34 -18 -46 -40 -46 -83 0
-43 12 -65 46 -83 16 -9 187 -12 633 -12 573 0 611 -1 616 -17 57 -169 180
-277 347 -305 197 -32 404 94 463 282 l11 35 199 6 c109 3 200 6 201 7 60 56
60 118 0 174 -1 1 -92 4 -201 7 l-199 6 -11 35 c-62 198 -274 321 -485 279z
m147 -194 c124 -37 193 -159 157 -280 -59 -204 -334 -228 -426 -39 -59 124 2
270 133 315 65 23 72 23 136 4z"/>
<path d="M820 962 c-173 -13 -314 -128 -373 -304 -5 -14 -29 -17 -202 -20
l-197 -3 -24 -28 c-33 -39 -33 -99 1 -132 24 -25 25 -25 219 -25 l194 0 16
-48 c79 -236 363 -351 591 -239 92 45 183 149 210 241 l12 41 627 5 628 5 19
24 c27 34 25 93 -5 128 l-24 28 -622 5 -621 5 -24 59 c-67 165 -243 272 -425
258z m125 -211 c153 -70 185 -269 59 -379 -90 -80 -210 -82 -295 -5 -74 67
-101 152 -76 234 41 135 190 206 312 150z"/>
</g>
</svg>
